<?xml version="1.0" encoding="UTF-8"?>
<svg version="1.1" xmlns="http://www.w3.org/2000/svg" width="450" height="300">
<path d="M0 0 C10.70824833 8.33692314 17.96094214 19.05918144 25.60375977 30.09350586 C30.31988242 36.89880197 35.18456057 43.57976663 40.11645508 50.22973633 C45.2025165 57.09167542 50.18184445 64.02520599 55.1171875 70.99609375 C54.88902344 70.03832031 54.66085938 69.08054687 54.42578125 68.09375 C50.4937603 50.40976088 51.47292114 33.33475155 61.3671875 17.68359375 C71.58482798 2.33940494 86.09718717 -7.11000109 104.1171875 -11.00390625 C125.14485676 -12.48789488 142.25901202 -9.12123701 158.77734375 4.7734375 C165.38212107 11.04742464 170.51544059 18.3227888 175.28125 26.04296875 C177.26748565 29.23784993 179.33553772 32.37158581 181.4296875 35.49609375 C181.8330835 36.09905273 182.23647949 36.70201172 182.65209961 37.32324219 C183.58113242 38.71175437 184.51043518 40.10008594 185.43994141 41.48828125 C188.6069899 46.22364109 191.76468223 50.96524766 194.92398071 55.70578003 C196.89172302 58.65822388 198.85994547 61.6103476 200.828125 64.5625 C201.57649971 65.68505705 202.32487218 66.8076156 203.07324219 67.93017578 C204.08499512 69.44780518 204.08499512 69.44780518 205.1171875 70.99609375 C211.9296875 81.21484375 218.7421875 91.43359375 225.5546875 101.65234375 C225.97500244 102.28277588 226.39531738 102.91320801 226.82836914 103.56274414 C227.68708061 104.85089268 228.54564199 106.13914128 229.40405273 107.42749023 C231.33752975 110.32900489 233.2732615 113.22889687 235.21484375 116.125 C249.47877722 137.42164819 261.5991174 156.08008565 256.4609375 182.97265625 C252.34348669 198.98102102 242.07121771 213.08647821 228.1171875 221.99609375 C212.01114974 230.99340602 194.57862608 233.40304202 176.6328125 229.09765625 C159.07569638 223.59642653 146.56091537 212.48963977 137.0625 197.11328125 C134.83684527 193.54687066 132.51935663 190.05080269 130.1796875 186.55859375 C129.75719727 185.92735596 129.33470703 185.29611816 128.89941406 184.64575195 C128.05333274 183.38197875 127.20698081 182.11838667 126.36035156 180.85498047 C125.14753076 179.04146562 123.93991345 177.2246122 122.734375 175.40625 C122.01507813 174.32214844 121.29578125 173.23804688 120.5546875 172.12109375 C119.91402344 171.15429688 119.27335937 170.1875 118.61328125 169.19140625 C117.29753784 167.11440785 117.29753784 167.11440785 116.1171875 165.99609375 C115.58351563 166.81174805 115.04984375 167.62740234 114.5 168.46777344 C112.48017284 171.55453838 110.45966149 174.64085498 108.43896484 177.72705078 C107.57192222 179.05147681 106.70505423 180.37601718 105.83837891 181.70068359 C101.47471503 188.37006094 97.10449022 195.0351144 92.703125 201.6796875 C91.78345947 203.06885376 91.78345947 203.06885376 90.84521484 204.48608398 C80.66952094 219.2665741 65.50662412 227.30965448 48.12792969 230.67089844 C31.25876775 233.39913104 14.08607445 228.43965344 0.28125 218.68359375 C-9.04448527 211.41154025 -15.38904476 202.02377517 -22.1328125 192.45605469 C-25.05701837 188.345522 -28.06606456 184.29828756 -31.0703125 180.24609375 C-35.63685684 174.07085895 -40.14944242 167.86225119 -44.59594727 161.60009766 C-47.62167624 157.34346603 -50.72292016 153.15384683 -53.8828125 148.99609375 C-53.56054688 150.08535156 -53.23828125 151.17460937 -52.90625 152.296875 C-49.68066922 165.2819785 -50.53924284 180.75188778 -55.8828125 192.99609375 C-56.21023437 193.846875 -56.53765625 194.69765625 -56.875 195.57421875 C-60.22349764 203.34664393 -65.9900496 209.09477822 -71.8828125 214.99609375 C-72.49253906 215.61742187 -73.10226563 216.23875 -73.73046875 216.87890625 C-85.21057283 227.65384423 -102.72418787 231.8646488 -118.08984375 231.37890625 C-134.5066636 229.72200785 -148.21035064 223.80680812 -159.8828125 211.99609375 C-160.94822266 210.96355469 -160.94822266 210.96355469 -162.03515625 209.91015625 C-172.84369991 198.74893458 -177.88147759 184.2409467 -177.97265625 168.8828125 C-177.54452673 150.49519834 -169.44832533 136.57639161 -159.4375 121.7890625 C-157.13847964 118.39024977 -154.90567318 114.95343149 -152.6953125 111.49609375 C-142.35635335 95.34350484 -131.81664642 79.32468685 -121.13696289 63.39575195 C-116.03785144 55.77733716 -111.08153996 48.08000102 -106.19970703 40.32104492 C-104.4441641 37.53502506 -102.66658859 34.764138 -100.8828125 31.99609375 C-100.44275879 31.3103125 -100.00270508 30.62453125 -99.54931641 29.91796875 C-87.48460908 11.18921599 -74.42282392 -5.32198258 -51.55078125 -10.5 C-32.99688005 -13.0489385 -15.62513696 -10.86137569 0 0 Z " fill="#31529F" transform="translate(183.8828125,36.00390625)"/>
<path d="M0 0 C10.41351469 7.0567227 17.61343371 16.43544917 24.1640625 27.046875 C26.15029815 30.24175618 28.21835022 33.37549206 30.3125 36.5 C30.715896 37.10295898 31.11929199 37.70591797 31.53491211 38.32714844 C32.46394492 39.71566062 33.39324768 41.10399219 34.32275391 42.4921875 C37.4898024 47.22754734 40.64749473 51.96915391 43.80679321 56.70968628 C45.77453552 59.66213013 47.74275797 62.61425385 49.7109375 65.56640625 C50.45931221 66.6889633 51.20768468 67.81152185 51.95605469 68.93408203 C52.96780762 70.45171143 52.96780762 70.45171143 54 72 C60.8125 82.21875 67.625 92.4375 74.4375 102.65625 C75.06797241 103.60189819 75.06797241 103.60189819 75.71118164 104.56665039 C76.56989311 105.85479893 77.42845449 107.14304753 78.28686523 108.43139648 C80.22034225 111.33291114 82.156074 114.23280312 84.09765625 117.12890625 C98.36158972 138.42555444 110.4819299 157.0839919 105.34375 183.9765625 C101.22629919 199.98492727 90.95403021 214.09038446 77 223 C60.89396224 231.99731227 43.46143858 234.40694827 25.515625 230.1015625 C7.95650378 224.59970452 -4.56241834 213.49020496 -14.05859375 198.109375 C-16.2592996 194.58470326 -18.55920398 191.13703884 -20.875 187.6875 C-21.7215353 186.4128807 -22.56788836 185.13814035 -23.4140625 183.86328125 C-25.14931311 181.25511897 -26.91871203 178.6747566 -28.7109375 176.10546875 C-29.55766218 174.86223143 -30.40403032 173.61875119 -31.25 172.375 C-31.65718262 171.80740967 -32.06436523 171.23981934 -32.48388672 170.6550293 C-33.578125 169.0234375 -33.578125 169.0234375 -35 166 C-34.18772417 162.29226473 -32.16198396 159.59684337 -29.9375 156.5625 C-27.05089469 152.52842426 -24.2950349 148.429714 -21.625 144.25 C-21.24657959 143.65775635 -20.86815918 143.0655127 -20.47827148 142.45532227 C-19.70406982 141.24203089 -18.93039102 140.02840572 -18.15722656 138.81445312 C-15.90609423 135.28482961 -13.63733778 131.76651382 -11.37109375 128.24658203 C-9.51319081 125.35927872 -7.66063342 122.46885928 -5.8203125 119.5703125 C-0.09018751 110.56601272 5.91033111 101.76457017 12 93 C9.61799004 94.89978805 7.23984694 96.80109168 4.89453125 98.74609375 C-8.95408424 109.99646993 -25.14073935 114.44896379 -42.81298828 113.22753906 C-61.56733958 111.27631609 -75.21135867 101.26410818 -87.18359375 87.30859375 C-97.16946416 74.61687459 -99.77161508 60.41598806 -98.78515625 44.54296875 C-96.58800757 27.23780724 -88.13617756 12.63927677 -74.38671875 1.97265625 C-51.93216324 -13.99833224 -23.21930191 -14.53399628 0 0 Z " fill="#8FBF45" transform="translate(335,35)"/>
<path d="M0 0 C0.80824219 0.61488281 1.61648437 1.22976562 2.44921875 1.86328125 C3.22652344 2.44722656 4.00382812 3.03117188 4.8046875 3.6328125 C13.58927778 10.81470645 20.75534922 21.1070394 24.44921875 31.86328125 C24.80371094 32.87390625 25.15820312 33.88453125 25.5234375 34.92578125 C28.99048513 47.40050131 27.5807401 63.1049608 22.44921875 74.86328125 C22.12179688 75.7140625 21.794375 76.56484375 21.45703125 77.44140625 C18.10853361 85.21383143 12.34198165 90.96196572 6.44921875 96.86328125 C5.83949219 97.48460937 5.22976562 98.1059375 4.6015625 98.74609375 C-6.87854158 109.52103173 -24.39215662 113.7318363 -39.7578125 113.24609375 C-56.17463235 111.58919535 -69.87831939 105.67399562 -81.55078125 93.86328125 C-82.26105469 93.17492187 -82.97132812 92.4865625 -83.703125 91.77734375 C-94.51166866 80.61612208 -99.54944634 66.1081342 -99.640625 50.75 C-99.31929607 36.94933438 -95.42057432 22.87803984 -86.30078125 12.23828125 C-85.39328125 11.45453125 -84.48578125 10.67078125 -83.55078125 9.86328125 C-82.85339844 9.1878125 -82.15601562 8.51234375 -81.4375 7.81640625 C-75.34873063 2.02867651 -69.06642943 -2.38375601 -61.55078125 -6.13671875 C-60.70902344 -6.57242188 -59.86726563 -7.008125 -59 -7.45703125 C-40.69636539 -15.21234902 -15.95316298 -11.13621392 0 0 Z " fill="#34BEBF" transform="translate(105.55078125,154.13671875)"/>
<path d="M0 0 C15.46709232 10.48128176 22.36072956 23.75415618 26.375 41.5 C28.97175393 57.50885415 24.79502851 73.52949441 16 87 C5.80405167 101.14071462 -7.8302625 108.42895145 -24.41796875 112.609375 C-40.63012759 115.06204653 -57.35609853 112.3880056 -71 103 C-85.2446154 91.7318714 -96.19664889 78.60714397 -98.46875 60.203125 C-100.08798578 42.97920773 -96.78913789 27.25310275 -86.0234375 13.42578125 C-64.43027383 -12.46100377 -28.41525258 -17.78637346 0 0 Z " fill="#F28234" transform="translate(335,35)"/>
<path d="M0 0 C2.13911742 2.05129442 3.95737463 4.15695031 5.6875 6.5625 C6.12449219 7.16191406 6.56148438 7.76132812 7.01171875 8.37890625 C8 10 8 10 8 12 C7.34 12 6.68 12 6 12 C6.33 12.845625 6.66 13.69125 7 14.5625 C8.06105954 18.20989216 8.15109013 21.22274664 8 25 C7.67 25 7.34 25 7 25 C6.61908203 23.26363281 6.61908203 23.26363281 6.23046875 21.4921875 C5.88322046 19.9530329 5.53554133 18.41397547 5.1875 16.875 C5.02185547 16.11445312 4.85621094 15.35390625 4.68554688 14.5703125 C3.63942012 9.99104068 2.2162527 6.17849362 0 2 C0 1.34 0 0.68 0 0 Z " fill="#7D8945" transform="translate(354,56)"/>
</svg>
